HIERARCHY
ROOT SpineBase
{
  OFFSET 0.000000 0.000000 0.000000
  CHANNELS 6 Xposition Yposition Zposition Zrotation Xrotation Yrotation
  JOINT SpineMid
  {
    OFFSET -0.000000 20.414617 0.000000
    CHANNELS 3 Zrotation Xrotation Yrotation
    JOINT SpineShoulder
    {
      OFFSET 0.277122 14.844615 -0.561479
      CHANNELS 3 Zrotation Xrotation Yrotation
      JOINT Neck
      {
        OFFSET 0.100528 4.829700 -0.497902
        CHANNELS 3 Zrotation Xrotation Yrotation
        JOINT Head
        {
          OFFSET -0.954242 13.490531 -1.839500
          CHANNELS 3 Zrotation Xrotation Yrotation
          End Site
          {
            OFFSET 0 0 0
          }
        }
      }
      JOINT ShoulderLeft
      {
        OFFSET -11.288728 5.476121 10.957330
        CHANNELS 3 Zrotation Xrotation Yrotation
        JOINT ElbowLeft
        {
          OFFSET -22.274013 -10.345145 5.233231
          CHANNELS 3 Zrotation Xrotation Yrotation
          JOINT WristLeft
          {
            OFFSET 16.729788 7.064286 -1.011535
            CHANNELS 3 Zrotation Xrotation Yrotation
            JOINT HandLeft
            {
              OFFSET 3.777911 0.061876 -4.288218
              CHANNELS 3 Zrotation Xrotation Yrotation
              JOINT HandTipLeft
              {
                OFFSET 3.494455 1.196812 -3.149385
                CHANNELS 3 Zrotation Xrotation Yrotation
                End Site
                {
                  OFFSET 0 0 0
                }
              }
              JOINT ThumbLeft
              {
                OFFSET -1.814637 4.742653 -2.309948
                CHANNELS 3 Zrotation Xrotation Yrotation
                End Site
                {
                  OFFSET 0 0 0
                }
              }
            }
          }
        }
      }
      JOINT ShoulderRight
      {
        OFFSET -16.890534 -0.603074 15.945135
        CHANNELS 3 Zrotation Xrotation Yrotation
        JOINT ElbowRight
        {
          OFFSET 10.832632 3.100808 -23.224652
          CHANNELS 3 Zrotation Xrotation Yrotation
          JOINT WristRight
          {
            OFFSET 4.394498 -15.700386 -19.781510
            CHANNELS 3 Zrotation Xrotation Yrotation
            JOINT HandRight
            {
              OFFSET 4.013658 -1.532949 -6.140068
              CHANNELS 3 Zrotation Xrotation Yrotation
              JOINT HandTipRight
              {
                OFFSET -2.636980 -6.377181 -3.273452
                CHANNELS 3 Zrotation Xrotation Yrotation
                End Site
                {
                  OFFSET 0 0 0
                }
              }
              JOINT ThumbRight
              {
                OFFSET 1.081799 -5.614382 0.820913
                CHANNELS 3 Zrotation Xrotation Yrotation
                End Site
                {
                  OFFSET 0 0 0
                }
              }
            }
          }
        }
      }
    }
  }
  JOINT HipLeft
  {
    OFFSET 3.192033 1.096066 -2.545394
    CHANNELS 3 Zrotation Xrotation Yrotation
    JOINT KneeLeft
    {
      OFFSET -36.894922 -0.134369 0.047747
      CHANNELS 3 Zrotation Xrotation Yrotation
      JOINT AnkleLeft
      {
        OFFSET 31.547073 -5.614683 17.249324
        CHANNELS 3 Zrotation Xrotation Yrotation
        JOINT FootLeft
        {
          OFFSET -8.198188 -9.250250 2.588619
          CHANNELS 3 Zrotation Xrotation Yrotation
          End Site
          {
            OFFSET 0 0 0
          }
        }
      }
    }
  }
  JOINT HipRight
  {
    OFFSET -4.311295 -2.960856 -2.039803
    CHANNELS 3 Zrotation Xrotation Yrotation
    JOINT KneeRight
    {
      OFFSET -12.313225 -0.045428 -28.997637
      CHANNELS 3 Zrotation Xrotation Yrotation
      JOINT AnkleRight
      {
        OFFSET -10.423991 -14.647625 19.797355
        CHANNELS 3 Zrotation Xrotation Yrotation
        JOINT FootRight
        {
          OFFSET 1.472716 7.388329 -6.832677
          CHANNELS 3 Zrotation Xrotation Yrotation
          End Site
          {
            OFFSET 0 0 0
          }
        }
      }
    }
  }
}
MOTION
Frames: 6
Frame Time: 0.033333
92.606851 24.904132 398.450533 0.183613 -3.606433 143.701348 -0.736357 -2.915469 -143.664146 -0.547948 -2.346368 0.206959 -11.114785 -4.834903 -2.154826 0.000000 0.000000 0.000000 -2.529619 3.323403 1.070631 1.241200 0.962776 -1.803453 -1.986179 -2.009346 4.303867 1.393148 0.507639 -0.635179 0.000000 0.000000 0.000000 0.000000 0.000000 0.000000 -3.645195 0.442054 -0.195053 1.733327 -5.016863 -2.740766 -10.044144 -5.512046 23.032100 -2.137145 36.065984 -11.783650 0.000000 0.000000 0.000000 0.000000 0.000000 0.000000 3.242123 -2.328138 -158.458357 -2.398381 0.568023 12.045113 5.593507 -6.481508 8.392027 0.000000 0.000000 0.000000 2.945922 -3.213573 -146.303417 0.798097 0.449592 2.611436 -7.167245 -5.030568 -5.402113 0.000000 0.000000 0.000000
91.633849 24.698881 397.448786 -1.613583 -2.785787 145.473463 -1.291656 -2.424983 -145.521940 -0.306681 -1.510150 0.067668 -8.279199 -4.628491 -1.808285 0.000000 0.000000 0.000000 -0.941231 2.424570 0.993173 1.297118 0.843672 -1.598324 -1.875410 -1.564131 3.401611 4.445766 2.297150 2.639395 0.000000 0.000000 0.000000 0.000000 0.000000 0.000000 -1.949169 0.063634 -0.346552 2.242672 -6.035119 -3.629944 -11.562459 -7.484322 27.908253 -0.522088 31.938395 -13.521765 0.000000 0.000000 0.000000 0.000000 0.000000 0.000000 2.129605 -2.271347 -158.902111 -1.423134 0.733098 10.275442 5.892931 -6.446227 8.894645 0.000000 0.000000 0.000000 0.544390 -3.415992 -148.933783 -0.442732 -0.790754 2.915272 -5.896688 -7.692876 -4.026679 0.000000 0.000000 0.000000
91.818421 24.932999 395.911322 -1.600714 -0.808741 150.371913 -1.808866 -1.362832 -150.382446 -0.531957 -0.673185 0.005473 -6.709868 -5.530983 -1.656474 0.000000 0.000000 0.000000 -0.426905 0.544601 1.192263 1.790610 0.877657 -1.686704 -1.880040 -0.808727 1.958185 9.656636 6.360429 7.229613 0.000000 0.000000 0.000000 0.000000 0.000000 0.000000 -1.164804 -0.849256 -0.667369 2.967133 -7.384086 -4.802401 -10.656210 -1.435608 28.986538 -3.417020 23.275493 -13.998546 0.000000 0.000000 0.000000 0.000000 0.000000 0.000000 0.717072 -0.775739 -161.619696 -1.904606 0.792656 7.205521 5.951324 -8.623608 11.551674 0.000000 0.000000 0.000000 -0.889755 -1.580233 -152.839274 -3.158302 -2.252324 -0.530912 -1.404856 -9.467009 0.292653 0.000000 0.000000 0.000000
92.254607 25.028545 395.465504 -1.356913 -1.132269 155.092327 -0.754204 -1.598227 -155.116255 0.616596 1.110748 0.034507 -6.014915 -6.728864 -1.544126 0.000000 0.000000 0.000000 -0.782228 -1.787990 1.317326 1.765531 0.910278 -1.829821 -1.786712 -0.590148 3.301802 13.642318 9.560868 6.101077 0.000000 0.000000 0.000000 0.000000 0.000000 0.000000 -1.767577 -3.488180 -0.323864 2.600807 -7.305147 -4.764540 -10.787675 -2.310391 30.178764 -2.620764 22.325098 -14.872371 0.000000 0.000000 0.000000 0.000000 0.000000 0.000000 0.722893 -1.097151 -164.918092 -2.235577 0.820447 5.457331 4.643157 -8.295448 10.971570 0.000000 0.000000 0.000000 -1.050226 -1.324644 -157.295744 -4.021114 -0.181367 -2.629431 2.407361 -11.130786 4.770201 0.000000 0.000000 0.000000
92.018477 25.265418 395.027648 -2.716180 -1.734401 154.302169 -1.697684 -2.739269 -154.383884 0.725730 0.969660 0.048542 -3.729837 -3.296630 -0.745951 0.000000 0.000000 0.000000 -0.786915 -1.714170 1.505334 1.243980 0.301268 -0.411723 -1.968732 -0.710168 6.808392 15.920565 9.723083 0.329127 0.000000 0.000000 0.000000 0.000000 0.000000 0.000000 -1.156990 -1.841617 -0.224971 0.682595 -9.941640 -3.596296 -11.480656 -6.629975 30.298657 1.091952 23.630721 -15.125969 0.000000 0.000000 0.000000 0.000000 0.000000 0.000000 -1.594350 -2.732654 -163.023082 -3.473526 0.780272 4.907730 1.384896 -8.443417 9.066762 0.000000 0.000000 0.000000 -2.597070 -1.926504 -156.115285 -4.680933 1.603564 -4.168352 10.286857 -5.107949 12.248535 0.000000 0.000000 0.000000
91.655989 25.646373 393.501813 -3.647473 0.829513 154.086363 -2.529764 -0.939401 -154.116543 2.023832 1.315862 0.115407 -3.623416 -3.678483 -0.687231 0.000000 0.000000 0.000000 -0.960241 -2.682312 1.692040 1.253265 1.128178 -2.493712 -0.578925 0.474992 4.295464 13.026926 8.619263 5.684685 0.000000 0.000000 0.000000 0.000000 0.000000 0.000000 -1.066199 -1.881176 -0.088099 -0.236587 -11.336249 -3.325770 -11.947534 -8.833564 30.307210 2.913593 25.586751 -15.263564 0.000000 0.000000 0.000000 0.000000 0.000000 0.000000 -5.580704 -1.658491 -162.297990 -4.962886 0.304852 3.978715 -1.316487 -8.138198 8.663400 0.000000 0.000000 0.000000 -5.145016 0.493378 -155.602103 -1.712123 3.328340 -0.696787 3.124843 -3.977099 4.797409 0.000000 0.000000 0.000000
